<svg width="15" height="16" viewBox="0 0 15 16" fill="none" xmlns="http://www.w3.org/2000/svg">
<path fill-rule="evenodd" clip-rule="evenodd" d="M7.50033 0.666748C3.45033 0.666748 0.166992 3.95008 0.166992 8.00008C0.166992 12.0501 3.45033 15.3334 7.50033 15.3334C11.5503 15.3334 14.8337 12.0501 14.8337 8.00008C14.8337 3.95008 11.5503 0.666748 7.50033 0.666748ZM8.16699 10.6667C8.16699 10.8436 8.09675 11.0131 7.97173 11.1382C7.84671 11.2632 7.67714 11.3334 7.50033 11.3334C7.32351 11.3334 7.15394 11.2632 7.02892 11.1382C6.9039 11.0131 6.83366 10.8436 6.83366 10.6667V8.66675H4.83366C4.65685 8.66675 4.48728 8.59651 4.36225 8.47149C4.23723 8.34646 4.16699 8.17689 4.16699 8.00008C4.16699 7.82327 4.23723 7.6537 4.36225 7.52868C4.48728 7.40365 4.65685 7.33341 4.83366 7.33341H6.83366V5.33341C6.83366 5.1566 6.9039 4.98703 7.02892 4.86201C7.15394 4.73699 7.32351 4.66675 7.50033 4.66675C7.67714 4.66675 7.84671 4.73699 7.97173 4.86201C8.09675 4.98703 8.16699 5.1566 8.16699 5.33341V7.33341H10.167C10.3438 7.33341 10.5134 7.40365 10.6384 7.52868C10.7634 7.6537 10.8337 7.82327 10.8337 8.00008C10.8337 8.17689 10.7634 8.34646 10.6384 8.47149C10.5134 8.59651 10.3438 8.66675 10.167 8.66675H8.16699V10.6667Z" fill="#6D6D6D"/>
</svg>
