<svg width="39" height="40" viewBox="0 0 39 40" fill="none" xmlns="http://www.w3.org/2000/svg">
<g filter="url(#filter0_d_1180_1424)">
<rect x="4" width="31" height="32" rx="8" fill="#049A76" fill-opacity="0.08"/>
<g clip-path="url(#clip0_1180_1424)">
<path d="M26.497 20.8932C26.032 20.4652 25.6249 19.9747 25.2867 19.4347C24.9174 18.6893 24.6961 17.8752 24.6357 17.0404V14.5813C24.6389 13.27 24.178 12.0026 23.3398 11.0172C22.5016 10.0319 21.3436 9.39641 20.0835 9.23022V8.58809C20.0835 8.41184 20.0157 8.24281 19.8949 8.11819C19.7742 7.99357 19.6105 7.92355 19.4397 7.92355C19.269 7.92355 19.1052 7.99357 18.9845 8.11819C18.8638 8.24281 18.7959 8.41184 18.7959 8.58809V9.24018C17.5471 9.41834 16.4031 10.0577 15.5759 11.0397C14.7487 12.0217 14.2943 13.28 14.2968 14.5813V17.0404C14.2364 17.8752 14.0151 18.6893 13.6458 19.4347C13.3135 19.9734 12.9129 20.4639 12.4547 20.8932C12.4033 20.9398 12.3621 20.9972 12.3338 21.0616C12.3055 21.126 12.2909 21.1958 12.2908 21.2665V21.9435C12.2908 22.0755 12.3416 22.2021 12.432 22.2954C12.5224 22.3888 12.6451 22.4412 12.773 22.4412H26.1788C26.3067 22.4412 26.4293 22.3888 26.5198 22.2954C26.6102 22.2021 26.661 22.0755 26.661 21.9435V21.2665C26.6609 21.1958 26.6462 21.126 26.618 21.0616C26.5897 20.9972 26.5485 20.9398 26.497 20.8932ZM13.2938 21.4457C13.7425 20.9983 14.1375 20.4969 14.4704 19.9524C14.9356 19.0521 15.207 18.0588 15.2661 17.0404V14.5813C15.247 13.998 15.3418 13.4166 15.5448 12.8718C15.7479 12.327 16.0551 11.83 16.4481 11.4103C16.8412 10.9907 17.312 10.6569 17.8326 10.429C18.3531 10.2011 18.9128 10.0836 19.4783 10.0836C20.0438 10.0836 20.6035 10.2011 21.124 10.429C21.6446 10.6569 22.1154 10.9907 22.5085 11.4103C22.9015 11.83 23.2087 12.327 23.4118 12.8718C23.6148 13.4166 23.7096 13.998 23.6905 14.5813V17.0404C23.7496 18.0588 24.021 19.0521 24.4862 19.9524C24.8191 20.4969 25.2141 20.9983 25.6628 21.4457H13.2938Z" fill="#00493C"/>
<path d="M19.5001 24.1038C19.8039 24.0966 20.0954 23.9787 20.3231 23.771C20.5508 23.5633 20.7 23.2792 20.7443 22.9689H18.2078C18.2533 23.2876 18.4095 23.5784 18.6472 23.7872C18.8849 23.996 19.188 24.1085 19.5001 24.1038Z" fill="#00493C"/>
</g>
</g>
<defs>
<filter id="filter0_d_1180_1424" x="0" y="0" width="39" height="40" filterUnits="userSpaceOnUse" color-interpolation-filters="sRGB">
<feFlood flood-opacity="0" result="BackgroundImageFix"/>
<feColorMatrix in="SourceAlpha" type="matrix" values="0 0 0 0 0 0 0 0 0 0 0 0 0 0 0 0 0 0 127 0" result="hardAlpha"/>
<feOffset dy="4"/>
<feGaussianBlur stdDeviation="2"/>
<feComposite in2="hardAlpha" operator="out"/>
<feColorMatrix type="matrix" values="0 0 0 0 0 0 0 0 0 0 0 0 0 0 0 0 0 0 0.08 0"/>
<feBlend mode="normal" in2="BackgroundImageFix" result="effect1_dropShadow_1180_1424"/>
<feBlend mode="normal" in="SourceGraphic" in2="effect1_dropShadow_1180_1424" result="shape"/>
</filter>
<clipPath id="clip0_1180_1424">
<rect width="17.36" height="17.92" fill="white" transform="translate(10.8201 7.04)"/>
</clipPath>
</defs>
</svg>
