<svg width="203" height="185" viewBox="0 0 203 185" fill="none" xmlns="http://www.w3.org/2000/svg">
<path d="M22.0713 11.2736C22.0713 10.4598 22.7311 9.8 23.5449 9.8H117.98C118.794 9.8 119.454 10.4598 119.454 11.2736V147.814C119.454 148.628 118.794 149.288 117.98 149.288H23.5449C22.7311 149.288 22.0713 148.628 22.0713 147.814V11.2736Z" fill="#DAE5D5" stroke="#ABC5A0" stroke-width="19"/>
<path d="M37.8555 114.465C37.8555 113.534 38.2359 112.779 38.7049 112.779H47.6959C48.1649 112.779 48.5451 113.534 48.5451 114.465V119.222C48.5451 120.153 48.1649 120.908 47.6959 120.908H38.7049C38.2359 120.908 37.8555 120.153 37.8555 119.222V114.465Z" fill="#C9DBC3"/>
<path d="M37.8555 130.987C37.8555 130.056 38.2359 129.301 38.7049 129.301H47.6959C48.1649 129.301 48.5451 130.056 48.5451 130.987V135.744C48.5451 136.675 48.1649 137.43 47.6959 137.43H38.7049C38.2359 137.43 37.8555 136.675 37.8555 135.744V130.987Z" fill="#C9DBC3"/>
<path opacity="0.5" d="M57.4609 115.997C57.4609 114.911 58.3411 114.03 59.4269 114.03H95.5995C96.6853 114.03 97.5655 114.911 97.5655 115.997C97.5655 117.083 96.6853 117.964 95.5995 117.964H59.4269C58.3411 117.964 57.4609 117.083 57.4609 115.997Z" fill="#C9DBC3"/>
<path opacity="0.5" d="M57.4609 132.781C57.4609 131.695 58.3411 130.815 59.4269 130.815H95.5995C96.6853 130.815 97.5655 131.695 97.5655 132.781C97.5655 133.868 96.6853 134.748 95.5995 134.748H59.4269C58.3411 134.748 57.4609 133.868 57.4609 132.781Z" fill="#C9DBC3"/>
<path d="M37.8555 20.8992C37.8555 20.453 38.6891 20.0914 39.7175 20.0914C40.7459 20.0914 41.5795 20.453 41.5795 20.8992V36.7954C41.5795 37.2416 40.7459 37.6032 39.7175 37.6032C38.6891 37.6032 37.8555 37.2416 37.8555 36.7954V20.8992Z" fill="#C9DBC3"/>
<path d="M46.3945 29.2864C46.3945 28.8206 47.1945 28.443 48.1813 28.443H48.6011C49.5879 28.443 50.3879 28.8206 50.3879 29.2864V36.7596C50.3879 37.2254 49.5879 37.603 48.6011 37.603H48.1813C47.1945 37.603 46.3945 37.2254 46.3945 36.7596V29.2864Z" fill="#C9DBC3"/>
<path d="M55.2041 24.1804C55.2041 23.7146 56.0255 23.337 57.0387 23.337H57.2715C58.2849 23.337 59.1063 23.7146 59.1063 24.1804V36.8508C59.1063 37.3166 58.2849 37.6942 57.2715 37.6942H57.0387C56.0255 37.6942 55.2041 37.3166 55.2041 36.8508V24.1804Z" fill="#C9DBC3"/>
<path d="M63.9219 23.5822C63.9219 23.1164 64.7435 22.7388 65.7567 22.7388H65.9895C67.0027 22.7388 67.8243 23.1164 67.8243 23.5822V36.851C67.8243 37.3168 67.0027 37.6944 65.9895 37.6944H65.7567C64.7435 37.6944 63.9219 37.3168 63.9219 36.851V23.5822Z" fill="#C9DBC3"/>
<path d="M103.602 81.1504C102.408 84.5392 100.407 87.5856 97.7708 90.0256C95.1348 92.4656 91.9438 94.2254 88.4742 95.1526C85.0048 96.08 81.3616 96.1466 77.8606 95.3468C74.3596 94.547 71.1062 92.905 68.3828 90.563L82.7756 73.8092L103.602 81.1504Z" fill="#FABA70"/>
<path d="M71.8209 92.9904C69.0159 91.3866 66.5967 89.1866 64.7341 86.5456C62.8717 83.9044 61.6111 80.8866 61.0413 77.7048C60.4717 74.523 60.6067 71.255 61.4371 68.1312C62.2675 65.0076 63.7729 62.1042 65.8471 59.6258C67.9213 57.1476 70.5137 55.155 73.4417 53.7886C76.3695 52.4222 79.5613 51.7152 82.7921 51.7174C86.0229 51.7198 89.2137 52.4314 92.1397 53.8022C95.0655 55.1728 97.6551 57.1692 99.7257 59.6504L82.7761 73.8092L71.8209 92.9904Z" fill="#FAFFFF"/>
<path d="M78.7695 52.084C82.7253 51.354 86.8051 51.7188 90.5687 53.1392C94.3323 54.5596 97.6367 56.9816 100.125 60.1438C102.613 63.306 104.191 67.088 104.687 71.0818C105.184 75.0754 104.581 79.129 102.943 82.8046L82.7755 73.8092L78.7695 52.084Z" fill="#2B8C6B"/>
<path d="M194.002 169.859L194.732 172.235L193.876 172.497C192.956 168.827 187.68 168.575 185.164 168.515C182.65 168.455 179.23 166.801 177.002 163.948C174.774 161.095 173.08 155.581 173.556 152.729C173.936 150.448 173.252 147.342 172.862 146.075C172.242 144.843 170.918 141.844 170.592 139.697C169.528 132.448 175.11 132.516 178.034 133.456C179.362 134.054 182.358 137.039 183.724 144.194C185.09 151.349 187.84 154.202 189.042 154.734C190.138 155.368 192.82 157.215 194.78 159.527C196.738 161.838 196.252 164.658 195.764 165.779C195.456 166.359 194.72 167.661 194.228 168.227C193.738 168.795 193.872 169.551 194.002 169.859Z" fill="#036352"/>
<path fill-rule="evenodd" clip-rule="evenodd" d="M175.466 136.633C175.06 135.787 174.696 135.079 174.406 134.552L174.248 134.638C174.546 135.179 174.924 135.913 175.344 136.794C175.656 137.446 175.99 138.178 176.332 138.971C175.88 139.04 175.356 138.928 174.868 138.745C174.344 138.55 173.874 138.278 173.604 138.089L173.5 138.237C173.782 138.433 174.264 138.712 174.806 138.914C175.318 139.106 175.896 139.232 176.406 139.141C176.818 140.1 177.238 141.142 177.642 142.236C177.976 143.142 178.3 144.082 178.596 145.038C177.896 145.134 177.068 144.825 176.296 144.373C175.494 143.902 174.77 143.288 174.352 142.868L174.226 142.994C174.652 143.424 175.386 144.048 176.206 144.528C176.994 144.99 177.88 145.33 178.65 145.212C178.924 146.105 179.174 147.011 179.386 147.914C179.494 148.369 179.592 148.824 179.68 149.276C179.754 149.652 179.852 150.04 179.976 150.44C178.31 150.678 176.928 150.049 176.444 149.703L176.34 149.85C176.856 150.219 178.298 150.871 180.03 150.613C180.35 151.612 180.812 152.678 181.376 153.776C181.894 154.786 182.496 155.824 183.152 156.865C180.774 157.561 179.086 156.938 178.548 156.549L178.442 156.695C179.036 157.123 180.8 157.756 183.254 157.023C183.848 157.958 184.486 158.894 185.142 159.812C185.846 160.796 186.572 161.759 187.294 162.679C186.234 163.078 184.962 162.995 183.782 162.716C182.562 162.429 181.456 161.935 180.812 161.569L180.722 161.725C181.38 162.098 182.502 162.599 183.74 162.891C184.954 163.178 186.29 163.267 187.41 162.827C187.944 163.504 188.474 164.157 188.99 164.776C190.208 166.239 191.342 167.511 192.24 168.463L192.372 168.341C191.486 167.401 190.37 166.151 189.17 164.712C190.556 162.602 190.448 160.213 190.218 159.269L190.044 159.312C190.264 160.215 190.37 162.521 189.05 164.567C188.546 163.962 188.03 163.324 187.51 162.663C186.786 161.743 186.056 160.778 185.35 159.792C187.498 158.666 187.518 156.606 187.25 155.702L187.078 155.753C187.33 156.608 187.314 158.573 185.244 159.645C184.59 158.73 183.958 157.798 183.368 156.869C182.712 155.833 182.108 154.8 181.588 153.796C182.522 153.558 183.096 153.016 183.432 152.427C183.78 151.817 183.872 151.158 183.848 150.734L183.67 150.743C183.69 151.138 183.604 151.762 183.276 152.338C182.958 152.897 182.41 153.412 181.504 153.632C180.944 152.534 180.49 151.474 180.178 150.486C180.042 150.056 179.934 149.641 179.858 149.242C179.772 148.806 179.678 148.367 179.574 147.927C179.912 147.643 180.204 147.21 180.436 146.786C180.678 146.341 180.858 145.897 180.948 145.622L180.778 145.565C180.69 145.831 180.516 146.265 180.278 146.7C180.068 147.087 179.81 147.466 179.528 147.729C179.314 146.844 179.068 145.957 178.798 145.083C178.5 144.113 178.174 143.158 177.834 142.238C179.068 141.346 179.518 139.889 179.59 139.259L179.412 139.238C179.344 139.83 178.918 141.207 177.77 142.063C177.368 140.981 176.95 139.95 176.542 139.003C176.198 138.201 175.86 137.458 175.544 136.796C176.47 136.308 176.68 135.439 176.664 135.046L176.484 135.053C176.498 135.392 176.312 136.184 175.466 136.633Z" fill="white"/>
<path d="M199.14 141.513C197.23 142.149 195.626 147.082 195.064 149.47C195.858 154.012 198.046 162.28 200.432 159.018C202.818 155.756 202.486 147.911 202.022 144.397C201.856 143.17 201.048 140.876 199.14 141.513Z" fill="#1F8D7A"/>
<path d="M180.168 143.001C182.18 142.98 185.308 147.118 186.62 149.19C187.352 153.743 187.986 162.273 184.666 159.969C181.344 157.665 179.096 150.142 178.386 146.669C178.142 145.456 178.156 143.023 180.168 143.001Z" fill="#1F8D7A"/>
<path d="M195.61 170.789L195.314 173.257L194.426 173.151C195.074 169.421 190.352 167.051 188.078 165.977C185.804 164.903 183.348 162.003 182.468 158.492C181.588 154.98 182.276 149.253 183.868 146.839C185.14 144.908 185.776 141.792 185.934 140.475C185.866 139.098 185.872 135.82 186.444 133.724C188.412 126.668 193.486 128.994 195.778 131.039C196.748 132.124 198.278 136.067 196.624 143.162C194.972 150.256 196.326 153.978 197.212 154.953C197.956 155.977 199.658 158.753 200.51 161.66C201.364 164.567 199.776 166.947 198.876 167.775C198.36 168.181 197.158 169.071 196.478 169.391C195.8 169.709 195.616 170.455 195.61 170.789Z" fill="#0D7260"/>
<path fill-rule="evenodd" clip-rule="evenodd" d="M189.986 133.054C189.848 132.126 189.706 131.341 189.584 130.753L189.408 130.789C189.534 131.393 189.678 132.206 189.822 133.171C189.928 133.886 190.034 134.684 190.128 135.542C189.674 135.476 189.206 135.214 188.794 134.897C188.35 134.555 187.98 134.158 187.778 133.898L187.636 134.009C187.848 134.279 188.226 134.688 188.684 135.039C189.12 135.373 189.634 135.664 190.148 135.727C190.26 136.764 190.356 137.884 190.42 139.048C190.474 140.012 190.508 141.006 190.51 142.007C189.812 141.893 189.112 141.354 188.508 140.696C187.878 140.01 187.368 139.211 187.09 138.686L186.932 138.77C187.214 139.306 187.732 140.118 188.374 140.818C188.992 141.49 189.738 142.075 190.51 142.189C190.51 143.123 190.482 144.062 190.42 144.988C190.39 145.455 190.35 145.919 190.302 146.377C190.262 146.757 190.242 147.157 190.242 147.575C188.58 147.314 187.444 146.307 187.082 145.834L186.94 145.944C187.326 146.449 188.512 147.495 190.242 147.757C190.256 148.806 190.384 149.961 190.6 151.176C190.798 152.293 191.07 153.463 191.392 154.65C188.914 154.617 187.484 153.526 187.082 152.996L186.94 153.104C187.38 153.688 188.882 154.811 191.442 154.831C191.736 155.899 192.07 156.981 192.428 158.052C192.812 159.199 193.224 160.334 193.644 161.424C192.512 161.494 191.32 161.041 190.274 160.428C189.194 159.795 188.28 158.998 187.772 158.459L187.642 158.582C188.16 159.132 189.086 159.941 190.184 160.584C191.26 161.214 192.51 161.692 193.712 161.6C194.022 162.404 194.338 163.184 194.648 163.926C195.382 165.683 196.094 167.231 196.672 168.407L196.834 168.327C196.264 167.169 195.564 165.646 194.84 163.919C196.784 162.309 197.384 159.994 197.44 159.023L197.26 159.013C197.206 159.941 196.63 162.177 194.768 163.745C194.464 163.018 194.158 162.257 193.854 161.472C193.434 160.38 193.018 159.244 192.632 158.094C195.018 157.648 195.64 155.684 195.65 154.742L195.47 154.74C195.462 155.631 194.868 157.505 192.574 157.922C192.218 156.856 191.888 155.779 191.596 154.717C191.274 153.535 191 152.37 190.798 151.258C191.76 151.304 192.468 150.955 192.962 150.49C193.474 150.009 193.754 149.406 193.858 148.994L193.684 148.951C193.588 149.334 193.322 149.905 192.84 150.359C192.37 150.8 191.696 151.132 190.766 151.076C190.554 149.862 190.43 148.715 190.422 147.679C190.418 147.229 190.438 146.8 190.48 146.396C190.528 145.954 190.566 145.506 190.596 145.056C191.002 144.883 191.41 144.555 191.756 144.218C192.118 143.864 192.42 143.492 192.586 143.256L192.44 143.151C192.278 143.379 191.984 143.743 191.63 144.089C191.314 144.397 190.958 144.685 190.61 144.852C190.666 143.944 190.69 143.024 190.69 142.109C190.69 141.094 190.658 140.085 190.604 139.107C192.044 138.616 192.904 137.355 193.158 136.775L192.992 136.702C192.754 137.248 191.942 138.44 190.594 138.92C190.526 137.768 190.43 136.66 190.318 135.635C190.224 134.766 190.12 133.958 190.012 133.232C191.04 133.037 191.496 132.268 191.598 131.888L191.424 131.842C191.336 132.17 190.928 132.873 189.986 133.054Z" fill="white"/>
<path d="M202.346 170.595H185.844V172.781H202.346V170.595Z" fill="#ED9B51"/>
<path d="M189.674 182.921L187.036 172.781H201.152L198.564 182.921H189.674Z" fill="#F2B268"/>
<path d="M0.369141 50.9174C0.369141 49.3716 1.62154 48.1184 3.16674 48.1184H55.1567C56.7019 48.1184 57.9545 49.3716 57.9545 50.9174V88.8728C57.9545 90.4188 56.7019 91.672 55.1567 91.672H3.16674C1.62154 91.672 0.369141 90.4188 0.369141 88.8728V50.9174Z" fill="#ADC7A2"/>
<path d="M44.2443 60.464V85.4988H7.39648L12.8807 76.4108L44.2443 60.464Z" fill="#DAE5D5"/>
<path d="M44.2443 58.578V70.581L32.5901 78.2972L22.3069 73.839L13.9091 78.2972L7.39648 85.156L13.9091 71.2668L23.3353 69.3806L44.2443 58.578Z" fill="white"/>
<path fill-rule="evenodd" clip-rule="evenodd" d="M6.99219 57.8924H7.45839V85.266H51.7854V85.7324H6.99219V57.8924Z" fill="#2B8C6B"/>
<path d="M5.16699 60.1216L7.22359 57.378L9.28019 60.1216H5.16699Z" fill="#2B8C6B"/>
<path d="M49.7275 87.5568L52.4697 85.4992L49.7275 83.4416V87.5568Z" fill="#2B8C6B"/>
<path d="M156.992 180.175L153.978 171.485L159.314 169.133L162.26 179.207L156.992 180.175Z" fill="#A25A52"/>
<path d="M146.444 183.915C144.398 183.183 151.17 178.431 154.812 176.147C155.074 175.961 155.606 175.691 155.638 176.107C155.852 177.179 157.12 177.421 157.728 177.407C158.426 177.391 159.974 177.139 160.572 176.275C161.17 175.411 161.614 175.667 161.76 175.903C162.2 176.837 163.116 178.899 163.264 179.683C163.412 180.467 162.828 180.729 162.518 180.763C158.012 182.117 148.49 184.645 146.444 183.915Z" fill="#49190F"/>
<path d="M144.007 133.071L144.026 133.142L155.039 173.104L159.957 172.211C159.457 169.646 158.825 164.592 158.135 158.345C157.328 151.026 156.432 141.957 155.572 133.048C155.261 129.824 154.955 126.622 154.659 123.53C154.137 118.073 153.648 112.961 153.224 108.687C152.892 105.338 152.6 102.51 152.364 100.435C152.312 99.9698 152.262 99.5435 152.215 99.1588C150.488 101.876 148.821 105.536 147.43 109.169C145.674 113.756 144.415 118.15 144.048 120.288L144.007 133.071ZM144.007 133.071L143.977 133.003M144.007 133.071L143.977 133.003M143.977 133.003C143.774 132.544 143.607 131.813 143.501 130.838M143.977 133.003L143.501 130.838M143.501 130.838C143.397 129.881 143.359 128.756 143.377 127.55M143.501 130.838L143.377 127.55M143.377 127.55C143.414 125.138 143.674 122.468 144.048 120.288L143.377 127.55Z" fill="#F2B268" stroke="#ED9B51" stroke-width="2"/>
<path d="M153.284 174.127C153.254 174.017 153.324 173.905 153.438 173.877L161.758 171.911C161.874 171.883 161.992 171.951 162.022 172.061L162.406 173.469C162.436 173.579 162.366 173.691 162.252 173.719L153.932 175.685C153.816 175.713 153.698 175.645 153.668 175.535L153.284 174.127Z" fill="#ED9B51"/>
<path d="M127.414 180.295V172.887H133.02L132.76 180.295H127.414Z" fill="#A25A52"/>
<path d="M116.664 183.483C114.813 182.389 122.461 178.979 126.516 177.411C126.812 177.275 127.392 177.109 127.334 177.521C127.318 178.613 128.508 179.083 129.106 179.183C129.796 179.293 131.366 179.333 132.136 178.595C132.906 177.859 133.286 178.191 133.38 178.449C133.612 179.445 134.072 181.637 134.052 182.433C134.03 183.229 133.402 183.379 133.09 183.353C128.386 183.851 118.514 184.575 116.664 183.483Z" fill="#49190F"/>
<path d="M150.726 92.6956H134.492L126.508 175.605H133.99C138.294 154.394 151.926 109.163 153.596 103.14C155.682 95.6102 150.596 92.6956 150.726 92.6956Z" fill="#1A086B"/>
<path d="M151.49 93.3402C151.189 93.0567 150.944 92.871 150.818 92.7747C150.767 92.7359 150.735 92.7116 150.726 92.7013V93.6956L150.729 93.6956C150.785 93.6957 151.115 93.6966 151.403 93.4296C151.435 93.4004 151.464 93.3705 151.49 93.3402ZM135.4 93.6956H150.374C150.473 93.774 150.596 93.8766 150.737 94.0054C151.108 94.3466 151.598 94.8726 152.035 95.6058C152.891 97.0436 153.601 99.3736 152.632 102.873C152.337 103.937 151.66 106.254 150.722 109.464C146.468 124.02 136.849 156.93 133.174 174.605H127.609L135.4 93.6956Z" fill="#F2B268" stroke="#ED9B51" stroke-width="2"/>
<path d="M125.534 174.885C125.534 174.767 125.628 174.673 125.744 174.673H134.838C134.954 174.673 135.048 174.767 135.048 174.885V176.327C135.048 176.443 134.954 176.539 134.838 176.539H125.744C125.628 176.539 125.534 176.443 125.534 176.327V174.885Z" fill="#ED9B51"/>
<path d="M118.524 88.3232C121.34 88.5176 123.695 87.6756 124.521 87.2302L126.608 91.6022C125.304 91.5618 121.992 91.918 119.175 93.6668C116.359 95.4156 109.419 93.3546 113.532 89.7124C114.41 88.9344 115.708 88.129 118.524 88.3232Z" fill="#A25A52"/>
<path d="M121.402 87.4492L135.864 81.2796C136.594 81.6682 136.69 86.704 136.648 89.1734L123.029 92.6084L121.402 87.4492Z" fill="#0D594B"/>
<path d="M142.948 103.407C142.974 102.942 143.372 102.583 143.838 102.606L155.954 103.197C156.42 103.22 156.776 103.616 156.75 104.081L156.42 109.916C156.394 110.381 155.996 110.739 155.532 110.717L143.414 110.125C142.95 110.102 142.594 109.707 142.62 109.242L142.948 103.407Z" fill="#293044"/>
<path d="M150.076 102.047C151.014 101.658 151.77 99.294 152.03 98.1604L156.594 99.6178C156.334 100.266 155.812 101.974 155.812 103.625C155.498 108.386 152.552 109.414 151.118 109.333C149.944 109.171 147.962 108.556 149.424 107.39C150.884 106.224 150.032 103.99 149.424 103.018C149.25 102.856 149.136 102.435 150.076 102.047Z" fill="#A25A52"/>
<path d="M162.33 79.7008C162.678 80.2674 163.164 82.1054 162.33 84.9228C162.176 85.441 161.962 86.1584 161.706 87.0096C161.534 87.9506 161.262 88.8902 160.862 89.8108C159.994 92.6876 158.966 96.0872 158.19 98.646C157.984 99.3198 157.798 99.9354 157.636 100.468L150.986 98.646L151.564 96.9214L155.306 85.7308L155.942 83.8298C156.072 83.3846 156.02 82.081 154.768 80.4294C153.516 78.7778 150.422 74.5596 149.032 72.657C149.814 71.483 152.428 69.0614 156.08 69.0614L159.136 74.418C159.192 74.5086 159.25 74.6042 159.308 74.7046L162.33 79.7008Z" fill="#036352"/>
<path d="M150.728 92.6952H134.492V73.8892C134.492 65.8692 139.906 61.8726 141.862 60.8768C143.036 60.4314 146.034 59.5166 149.162 60.8768C152.292 62.2368 155.124 66.8754 156.08 69.0614L150.728 92.6952Z" fill="#036352"/>
<path d="M142.644 60.3912V56.0192L148.772 55.0476V60.7556C147.12 61.6866 143.244 63.6946 140.948 64.2774C138.654 64.8604 141.122 61.9296 142.644 60.3912Z" fill="#A25A52"/>
<path d="M142.642 60.3912V56.0192L148.77 55.0476V56.705L142.642 60.3912Z" fill="#5D1715"/>
<path fill-rule="evenodd" clip-rule="evenodd" d="M151.198 75.1854C151.292 75.117 151.424 75.138 151.492 75.2322L154.026 78.727C154.096 78.8212 154.074 78.953 153.98 79.0214C153.886 79.0898 153.754 79.0688 153.686 78.9746L151.152 75.4798C151.082 75.3856 151.104 75.2538 151.198 75.1854Z" fill="#0D594B"/>
<path d="M136.806 46.7102C135.978 51.4146 137.084 56.1708 140.834 56.8744C142.11 57.1138 143.408 57.1856 144.07 57.169C148.476 57.0586 152.162 54.7984 151.492 50.7884C150.826 46.7956 150.602 45.883 148.714 43.8246C146.666 41.5916 144.42 41.9798 142.586 40.3744C140.25 36.5876 137.456 43.0126 136.806 46.7102Z" fill="#A25A52"/>
<path d="M162.486 57.76C160.668 64.9364 165.05 78.062 180.956 76.3732C182.138 76.2478 176.646 75.7758 174.306 73.9006C177.748 75.4736 179.648 75.492 180.598 75.2242C178.238 74.697 173.084 72.5876 170.882 71.0142C170.586 70.6122 170.606 70.7296 170.388 70.2606C171.872 71.9372 175.968 73.6906 180.004 74.1212C176.052 72.7172 170.62 70.3612 169.7 67.3642C169.596 65.5042 170.006 63.265 171.12 60.715C175.912 49.7448 166.122 45.0956 156.58 46.7842C156.58 48.393 156.58 49.3988 156.58 49.8856V50.1614C159.154 50.3022 163.94 52.0188 162.486 57.76Z" fill="#49190F"/>
<path d="M149.068 56.0054C148.152 55.4016 148.084 53.5904 150.112 53.321C152.628 52.9868 151.1 48.7108 148.868 50.5126C148.046 51.1764 146.988 52.1784 147.812 50.5126C149.9 44.0274 148.398 44.4338 147.812 44.655C147.224 44.8764 143.112 44.5444 140.88 43.5488C139.096 42.7522 137.656 44.7338 137.16 45.8242C136.428 41.769 139.358 37.0392 142.932 36.5078C145.668 36.1006 148.358 37.1982 149.068 38.57C158.432 37.349 158.494 44.1004 157.848 46.8342C157.772 47.7928 157.456 49.8706 156.804 50.5126C154.52 53.4304 150.9 55.3334 149.068 56.0054Z" fill="#49190F"/>
</svg>
