<svg width="138" height="138" viewBox="0 0 138 138" fill="none" xmlns="http://www.w3.org/2000/svg">
<rect width="138" height="138" rx="20" fill="#EFFEEE"/>
<path d="M69 34C62.0777 34 55.3108 36.0527 49.5551 39.8986C43.7993 43.7444 39.3133 49.2107 36.6642 55.6061C34.0152 62.0015 33.322 69.0388 34.6725 75.8282C36.023 82.6175 39.3564 88.8539 44.2513 93.7487C49.1461 98.6436 55.3825 101.977 62.1718 103.327C68.9612 104.678 75.9985 103.985 82.3939 101.336C88.7893 98.6867 94.2556 94.2007 98.1014 88.4449C101.947 82.6892 104 75.9223 104 69C103.99 59.7206 100.299 50.8242 93.7373 44.2627C87.1758 37.7012 78.2794 34.0104 69 34V34Z" fill="#4BAC1D"/>
<path d="M82.2202 63.0472L67.5706 77.6968C67.3615 77.9063 67.1132 78.0724 66.8398 78.1858C66.5664 78.2992 66.2733 78.3575 65.9774 78.3575C65.6814 78.3575 65.3884 78.2992 65.115 78.1858C64.8416 78.0724 64.5933 77.9063 64.3842 77.6968L57.0594 70.372C56.6369 69.9495 56.3995 69.3764 56.3995 68.7788C56.3995 68.1812 56.6369 67.6082 57.0594 67.1856C57.4819 66.7631 58.055 66.5257 58.6526 66.5257C59.2502 66.5257 59.8233 66.7631 60.2458 67.1856L65.9774 72.9172L79.0394 59.8608C79.4619 59.4383 80.035 59.2009 80.6326 59.2009C81.2302 59.2009 81.8032 59.4383 82.2258 59.8608C82.6483 60.2834 82.8857 60.8565 82.8857 61.454C82.8857 62.0516 82.6483 62.6247 82.2258 63.0472H82.2202Z" fill="#FAFAFA"/>
</svg>
