<svg width="27" height="26" viewBox="0 0 27 26" fill="none" xmlns="http://www.w3.org/2000/svg">
<path d="M13.5169 1.16708C13.5701 1.26582 14.7169 3.27848 16.0688 5.6405C17.4131 8.01012 18.522 9.9772 18.522 10.0152C18.522 10.0607 17.3751 12.0962 15.9777 14.5494C14.5802 17.0025 13.4334 19.0228 13.4334 19.0456C13.4334 19.0607 15.0815 19.0683 17.1017 19.0607L20.7625 19.038L23.322 14.5569C24.7346 12.0886 25.8815 10.038 25.8663 9.99239C25.8587 9.94682 24.7043 7.90379 23.3068 5.45822L20.7625 0.999996H17.0941H13.4258L13.5169 1.16708Z" stroke="#00493C" stroke-width="2"/>
<path d="M3.5295 11.4203C1.96494 14.1544 0.977601 15.962 1.00039 16.0456C1.02317 16.1215 2.17001 18.1646 3.55988 20.5873L6.0738 25H9.72696C13.0459 25 13.3725 24.9924 13.327 24.8785C13.3042 24.8101 12.1497 22.7823 10.7751 20.3671L8.26874 15.9696L10.813 11.5266C12.2105 9.08102 13.3573 7.04558 13.3573 7.00001C13.3573 6.94685 12.1194 6.92406 9.71937 6.92406H6.08899L3.5295 11.4203Z" stroke="#00493C" stroke-width="2"/>
</svg>
