<svg width="143" height="140" viewBox="0 0 143 140" fill="none" xmlns="http://www.w3.org/2000/svg">
<path d="M143 70C143 108.66 117.029 140 75.3912 140C33.7538 140 0 108.66 0 70C0 31.3401 33.7538 0 75.3912 0C117.029 0 143 31.3401 143 70Z" fill="#AC1D1D" fill-opacity="0.25"/>
<ellipse cx="72.0298" cy="70" rx="60.0248" ry="58.3333" fill="#AC1D1D" fill-opacity="0.5"/>
<ellipse cx="72.9592" cy="70" rx="45.5995" ry="43.75" fill="#AC1D1D"/>
<g clip-path="url(#clip0_2_82)">
<path d="M70.0924 73.4121C70.2533 75.0097 70.522 76.199 70.8977 76.9799C71.2727 77.7602 71.9451 78.152 72.9126 78.152C73.0942 78.152 73.2571 78.1233 73.4187 78.0939C73.5816 78.1233 73.7425 78.152 73.9234 78.152C74.8896 78.152 75.5606 77.7602 75.9383 76.9799C76.3127 76.199 76.582 75.0097 76.7423 73.4121L77.6015 61.0792C77.7624 58.6751 77.8429 56.9493 77.8429 55.9029C77.8429 54.4776 77.4539 53.3655 76.6771 52.5686C75.8971 51.7711 74.8723 51.3711 73.6022 51.3711C73.5357 51.3711 73.4845 51.3857 73.42 51.3883C73.3555 51.3857 73.3036 51.3711 73.2378 51.3711C71.9663 51.3711 70.9429 51.7705 70.1635 52.5686C69.3855 53.3662 68.9965 54.4782 68.9965 55.9036C68.9965 56.9506 69.0776 58.6758 69.2379 61.0798L70.0964 73.4121H70.0924ZM73.4446 82.6558C72.215 82.6558 71.165 83.0303 70.2952 83.7749C69.4267 84.5239 68.9918 85.4286 68.9918 86.4916C68.9918 87.6961 69.4314 88.6385 70.3092 89.3237C71.1896 90.0102 72.215 90.356 73.3848 90.356C74.5778 90.356 75.6171 90.0153 76.5062 89.3384C77.3953 88.6602 77.8362 87.7114 77.8362 86.4909C77.8362 85.428 77.4106 84.5233 76.5614 83.7742C75.7129 83.0303 74.6735 82.6558 73.442 82.6558" fill="white"/>
</g>
<defs>
<clipPath id="clip0_2_82">
<rect width="42.5595" height="40.8333" fill="white" transform="translate(51.6794 49.5833)"/>
</clipPath>
</defs>
</svg>
