<svg width="184" height="169" viewBox="0 0 184 169" fill="none" xmlns="http://www.w3.org/2000/svg">
<ellipse cx="92" cy="89" rx="92" ry="80" fill="white"/>
<circle cx="93" cy="75" r="75" fill="#AC1D1D" fill-opacity="0.25"/>
<circle cx="93" cy="75" r="62.5" fill="#AC1D1D" fill-opacity="0.5"/>
<circle cx="93" cy="75" r="46.875" fill="#AC1D1D"/>
<g clip-path="url(#clip0_3010_8827)">
<path d="M90.053 78.656C90.2184 80.3677 90.4946 81.6419 90.8808 82.4786C91.2664 83.3146 91.9575 83.7344 92.9521 83.7344C93.1387 83.7344 93.3062 83.7036 93.4723 83.6722C93.6398 83.7036 93.8052 83.7344 93.9912 83.7344C94.9844 83.7344 95.6742 83.3146 96.0625 82.4786C96.4473 81.6419 96.7242 80.3677 96.8889 78.656L97.7721 65.4421C97.9375 62.8663 98.0203 61.0172 98.0203 59.8961C98.0203 58.3689 97.6204 57.1774 96.8219 56.3236C96.0201 55.4691 94.9666 55.0405 93.661 55.0405C93.5926 55.0405 93.54 55.0562 93.4737 55.059C93.4074 55.0562 93.3541 55.0405 93.2864 55.0405C91.9793 55.0405 90.9273 55.4685 90.1261 56.3236C89.3263 57.1781 88.9264 58.3696 88.9264 59.8968C88.9264 61.0186 89.0098 62.867 89.1746 65.4428L90.0571 78.656H90.053ZM93.499 88.5599C92.235 88.5599 91.1556 88.9611 90.2615 89.7589C89.3687 90.5614 88.9216 91.5308 88.9216 92.6696C88.9216 93.9602 89.3735 94.9699 90.2758 95.7041C91.1809 96.4396 92.235 96.8102 93.4375 96.8102C94.6638 96.8102 95.7323 96.4451 96.6462 95.7198C97.5602 94.9932 98.0134 93.9767 98.0134 92.6689C98.0134 91.5301 97.5759 90.5607 96.703 89.7582C95.8307 88.9611 94.7623 88.5599 93.4962 88.5599" fill="white"/>
</g>
<defs>
<clipPath id="clip0_3010_8827">
<rect width="43.75" height="43.75" fill="white" transform="translate(71.125 53.125)"/>
</clipPath>
</defs>
</svg>
