<svg width="138" height="138" viewBox="0 0 138 138" fill="none" xmlns="http://www.w3.org/2000/svg">
<rect width="138" height="138" rx="20" fill="#FEEEEE"/>
<path d="M69 39C62.0777 39 55.3108 41.0527 49.5551 44.8986C43.7993 48.7444 39.3133 54.2107 36.6642 60.6061C34.0152 67.0015 33.322 74.0388 34.6725 80.8282C36.023 87.6175 39.3564 93.8539 44.2513 98.7487C49.1461 103.644 55.3825 106.977 62.1718 108.327C68.9612 109.678 75.9985 108.985 82.3939 106.336C88.7893 103.687 94.2556 99.2007 98.1014 93.4449C101.947 87.6892 104 80.9223 104 74C103.99 64.7206 100.299 55.8242 93.7373 49.2627C87.1758 42.7012 78.2794 39.0104 69 39V39Z" fill="#AC1D1D"/>
<path d="M68.6788 73.6799L63 68M63 79.3598L68.6799 73.6799L63 79.3598ZM74.3598 68L68.6788 73.6799L74.3598 68Z" stroke="white" stroke-width="3" stroke-linecap="round" stroke-linejoin="round"/>
<path d="M68.6797 73.6799L74.3596 79.3598" stroke="white" stroke-width="3" stroke-linecap="round" stroke-linejoin="round"/>
</svg>
