<svg width="168" height="181" viewBox="0 0 168 181" fill="none" xmlns="http://www.w3.org/2000/svg">
<circle cx="88.9829" cy="101.45" r="78.5991" fill="#F1F1F1"/>
<path d="M158.167 69.7809C155.081 80.9391 144.966 105.806 126.775 110.429C108.583 115.051 99.9436 110.163 98.1996 107.838" stroke="#CCCCCC" stroke-width="2"/>
<mask id="path-3-inside-1_1491_4962" fill="white">
<path fill-rule="evenodd" clip-rule="evenodd" d="M68.6855 45.5173L51.4004 64.0949V157.383H126.565V64.0949L109.749 45.5173H68.6855ZM83.7756 76.7361C88.1179 76.7361 91.638 73.2159 91.638 68.8737C91.638 64.5314 88.1179 61.0112 83.7756 61.0112C79.4333 61.0112 75.9132 64.5314 75.9132 68.8737C75.9132 73.2159 79.4333 76.7361 83.7756 76.7361Z"/>
</mask>
<path fill-rule="evenodd" clip-rule="evenodd" d="M68.6855 45.5173L51.4004 64.0949V157.383H126.565V64.0949L109.749 45.5173H68.6855ZM83.7756 76.7361C88.1179 76.7361 91.638 73.2159 91.638 68.8737C91.638 64.5314 88.1179 61.0112 83.7756 61.0112C79.4333 61.0112 75.9132 64.5314 75.9132 68.8737C75.9132 73.2159 79.4333 76.7361 83.7756 76.7361Z" fill="white"/>
<path d="M51.4004 64.0949L50.278 63.0507L49.8674 63.492V64.0949H51.4004ZM68.6855 45.5173V43.9843H68.0179L67.5632 44.4731L68.6855 45.5173ZM51.4004 157.383H49.8674V158.916H51.4004V157.383ZM126.565 157.383V158.916H128.098V157.383H126.565ZM126.565 64.0949H128.098V63.5041L127.701 63.0661L126.565 64.0949ZM109.749 45.5173L110.886 44.4886L110.429 43.9843H109.749V45.5173ZM52.5227 65.1392L69.8078 46.5616L67.5632 44.4731L50.278 63.0507L52.5227 65.1392ZM52.9334 157.383V64.0949H49.8674V157.383H52.9334ZM126.565 155.85H51.4004V158.916H126.565V155.85ZM125.032 64.0949V157.383H128.098V64.0949H125.032ZM108.612 46.5461L125.428 65.1237L127.701 63.0661L110.886 44.4886L108.612 46.5461ZM68.6855 47.0504H109.749V43.9843H68.6855V47.0504ZM90.105 68.8737C90.105 72.3693 87.2712 75.2031 83.7756 75.2031V78.2691C88.9646 78.2691 93.171 74.0626 93.171 68.8737H90.105ZM83.7756 62.5442C87.2712 62.5442 90.105 65.378 90.105 68.8737H93.171C93.171 63.6847 88.9646 59.4782 83.7756 59.4782V62.5442ZM77.4462 68.8737C77.4462 65.378 80.28 62.5442 83.7756 62.5442V59.4782C78.5866 59.4782 74.3801 63.6847 74.3801 68.8737H77.4462ZM83.7756 75.2031C80.28 75.2031 77.4462 72.3693 77.4462 68.8737H74.3801C74.3801 74.0626 78.5866 78.2691 83.7756 78.2691V75.2031Z" fill="#CCCCCC" mask="url(#path-3-inside-1_1491_4962)"/>
<path d="M78.5127 101.45C78.5127 102.465 78.3128 103.47 77.9243 104.408C77.5359 105.346 76.9665 106.198 76.2488 106.916C75.531 107.633 74.679 108.203 73.7412 108.591C72.8034 108.98 71.7983 109.179 70.7832 109.179C69.7682 109.179 68.763 108.98 67.8253 108.591C66.8875 108.203 66.0354 107.633 65.3176 106.916C64.5999 106.198 64.0305 105.346 63.6421 104.408C63.2536 103.47 63.0537 102.465 63.0537 101.45H64.7578C64.7578 102.241 64.9136 103.025 65.2164 103.756C65.5192 104.487 65.9631 105.151 66.5226 105.711C67.0821 106.27 67.7463 106.714 68.4774 107.017C69.2084 107.32 69.9919 107.475 70.7832 107.475C71.5745 107.475 72.358 107.32 73.0891 107.017C73.8201 106.714 74.4843 106.27 75.0439 105.711C75.6034 105.151 76.0472 104.487 76.35 103.756C76.6528 103.025 76.8087 102.241 76.8087 101.45H78.5127Z" fill="#CCCCCC"/>
<path d="M91.5059 121.919C91.5059 120.904 91.306 119.899 90.9175 118.961C90.5291 118.023 89.9597 117.171 89.242 116.453C88.5242 115.736 87.6721 115.166 86.7343 114.778C85.7965 114.389 84.7914 114.189 83.7764 114.189C82.7613 114.189 81.7562 114.389 80.8184 114.778C79.8806 115.166 79.0285 115.736 78.3108 116.453C77.593 117.171 77.0237 118.023 76.6352 118.961C76.2468 119.899 76.0469 120.904 76.0469 121.919H77.7509C77.7509 121.128 77.9068 120.344 78.2096 119.613C78.5124 118.882 78.9562 118.218 79.5157 117.658C80.0753 117.099 80.7395 116.655 81.4705 116.352C82.2016 116.049 82.9851 115.893 83.7764 115.893C84.5677 115.893 85.3512 116.049 86.0822 116.352C86.8133 116.655 87.4775 117.099 88.037 117.658C88.5965 118.218 89.0404 118.882 89.3432 119.613C89.646 120.344 89.8018 121.128 89.8018 121.919H91.5059Z" fill="#CCCCCC"/>
<path d="M104.498 101.45C104.498 102.465 104.298 103.47 103.91 104.408C103.521 105.346 102.952 106.198 102.234 106.916C101.516 107.633 100.664 108.203 99.7265 108.591C98.7887 108.98 97.7836 109.179 96.7686 109.179C95.7535 109.179 94.7484 108.98 93.8106 108.591C92.8728 108.203 92.0207 107.633 91.303 106.916C90.5852 106.198 90.0159 105.346 89.6274 104.408C89.239 103.47 89.0391 102.465 89.0391 101.45H90.7431C90.7431 102.241 90.899 103.025 91.2018 103.756C91.5046 104.487 91.9484 105.151 92.5079 105.711C93.0674 106.27 93.7317 106.714 94.4627 107.017C95.1938 107.32 95.9773 107.475 96.7686 107.475C97.5598 107.475 98.3434 107.32 99.0744 107.017C99.8055 106.714 100.47 106.27 101.029 105.711C101.589 105.151 102.033 104.487 102.335 103.756C102.638 103.025 102.794 102.241 102.794 101.45H104.498Z" fill="#CCCCCC"/>
<rect x="52.3546" y="138.787" width="73.2576" height="18.3326" fill="#FAFAFA" stroke="#CCCCCC" stroke-width="1.53302"/>
<circle cx="81.8717" cy="23.5888" r="4.26821" fill="#C4C4C4"/>
<circle cx="136.43" cy="25.5051" r="1.91628" fill="#C4C4C4"/>
<circle cx="126.267" cy="55.6548" r="1.91628" fill="#C4C4C4"/>
<circle cx="154.077" cy="76.079" r="2.49116" fill="#C4C4C4"/>
<circle cx="37.413" cy="16.8295" r="2.49116" fill="#C4C4C4"/>
<path d="M113.211 5.7273L115.504 3.43436L117.162 5.09213L114.869 7.38507L117.46 9.97653L115.714 11.7232L113.122 9.13177L110.823 11.4311L109.165 9.77328L111.464 7.47399L108.981 4.99051L110.728 3.24381L113.211 5.7273Z" fill="#E6E6E6"/>
<path d="M53.1705 28.6699L55.0164 26.824L56.3509 28.1585L54.505 30.0044L56.5913 32.0906L55.1851 33.4968L53.0989 31.4106L51.2479 33.2616L49.9133 31.927L51.7643 30.076L49.7651 28.0767L51.1712 26.6706L53.1705 28.6699Z" fill="#E6E6E6"/>
<path d="M28.4709 60.0214L29.6472 58.8451L30.4977 59.6955L29.3214 60.8719L30.6508 62.2014L29.7547 63.0975L28.4253 61.768L27.2457 62.9476L26.3952 62.0971L27.5748 60.9175L26.3007 59.6434L27.1968 58.7473L28.4709 60.0214Z" fill="#E6E6E6"/>
<path d="M154.175 48.4491L155.351 47.2728L156.202 48.1233L155.025 49.2996L156.355 50.6291L155.459 51.5252L154.129 50.1957L152.95 51.3753L152.099 50.5248L153.279 49.3452L152.005 48.0711L152.901 47.175L154.175 48.4491Z" fill="#E6E6E6"/>
<path d="M1.41797 131.976C5.92643 115.673 20.7063 79.3385 47.2866 72.5841C73.8669 65.8297 86.4906 72.9724 89.0388 76.369" stroke="#CCCCCC" stroke-width="2"/>
</svg>
