<svg width="15" height="16" viewBox="0 0 15 16" fill="none" xmlns="http://www.w3.org/2000/svg">
<path d="M14.497 13.8932C14.032 13.4652 13.6249 12.9747 13.2867 12.4347C12.9174 11.6893 12.6961 10.8752 12.6357 10.0404V7.58133C12.6389 6.26999 12.178 5.00258 11.3398 4.01723C10.5016 3.03188 9.3436 2.39641 8.08348 2.23022V1.58809C8.08348 1.41184 8.01566 1.24281 7.89493 1.11819C7.7742 0.993567 7.61045 0.923553 7.43972 0.923553C7.26898 0.923553 7.10523 0.993567 6.9845 1.11819C6.86377 1.24281 6.79595 1.41184 6.79595 1.58809V2.24018C5.54712 2.41834 4.40315 3.05765 3.57592 4.0397C2.7487 5.02174 2.29427 6.27996 2.29682 7.58133V10.0404C2.23642 10.8752 2.01509 11.6893 1.64582 12.4347C1.31351 12.9734 0.912932 13.4639 0.454727 13.8932C0.403289 13.9398 0.362064 13.9972 0.333794 14.0616C0.305524 14.126 0.290858 14.1958 0.290771 14.2665V14.9435C0.290771 15.0755 0.341577 15.2021 0.432011 15.2954C0.522445 15.3888 0.645101 15.4412 0.772994 15.4412H14.1788C14.3067 15.4412 14.4293 15.3888 14.5198 15.2954C14.6102 15.2021 14.661 15.0755 14.661 14.9435V14.2665C14.6609 14.1958 14.6462 14.126 14.618 14.0616C14.5897 13.9972 14.5485 13.9398 14.497 13.8932ZM1.29379 14.4457C1.74246 13.9983 2.13749 13.4969 2.47042 12.9524C2.93557 12.0521 3.20698 11.0588 3.26608 10.0404V7.58133C3.24696 6.99795 3.34175 6.41657 3.54483 5.8718C3.7479 5.32702 4.0551 4.83001 4.44813 4.41034C4.84116 3.99067 5.31198 3.65693 5.83256 3.42901C6.35313 3.20108 6.91282 3.08361 7.47829 3.08361C8.04376 3.08361 8.60345 3.20108 9.12403 3.42901C9.64461 3.65693 10.1154 3.99067 10.5085 4.41034C10.9015 4.83001 11.2087 5.32702 11.4118 5.8718C11.6148 6.41657 11.7096 6.99795 11.6905 7.58133V10.0404C11.7496 11.0588 12.021 12.0521 12.4862 12.9524C12.8191 13.4969 13.2141 13.9983 13.6628 14.4457H1.29379Z" fill="#00493C"/>
</svg>
