<svg width="300" height="227" viewBox="0 0 300 227" fill="none" xmlns="http://www.w3.org/2000/svg">
<path opacity="0.3" d="M223.875 44.6917C250.298 53.7367 275.468 78.5542 276.233 110.594C276.998 142.634 268.245 175.304 220.103 187.927C174.885 199.814 67.5 204.119 38.9175 164.287C11.94 126.742 20.505 65.8042 67.665 46.3042C100.717 32.6317 172.268 27.0217 223.875 44.6917Z" fill="#000028" fill-opacity="0.25"/>
<path d="M242.978 82.1767L242.64 81.9742V81.6142H242.025L154.358 29.8942H144.96L57.2925 81.6142H56.6775V81.9742L56.34 82.1767H56.6775V186.329H242.64V82.1767H242.978Z" fill="#00493C"/>
<path d="M220.643 41.3542H78.675V173.392H220.643V41.3542Z" fill="white"/>
<path d="M242.978 81.6142V186.179H56.34V81.6142H56.595L144.96 133.747H154.358L242.723 81.6142H242.978Z" fill="#049A76"/>
<path opacity="0.46" d="M144.96 133.897H154.358L242.978 186.172H56.34L144.96 133.897Z" fill="white"/>
<path d="M104.25 41.3542C101.52 42.9742 78.0825 54.5392 77.955 54.1642C77.8275 53.7892 71.25 51.2992 71.25 45.5542C71.25 39.8092 91.215 30.9592 97.575 31.8292C103.935 32.6992 104.25 41.3542 104.25 41.3542Z" fill="#25C5FA"/>
<path d="M77.955 54.1642L70.3425 58.7842C70.3425 58.7842 70.3425 60.8317 74.1525 60.0292C88.2525 57.0292 104.408 41.0992 104.408 41.0992L77.955 54.1642Z" fill="#00493C"/>
<path d="M135.103 94.264C133.359 94.264 131.975 93.96 130.951 93.352C129.943 92.728 129.215 91.792 128.767 90.544C128.335 89.296 128.119 87.736 128.119 85.864C128.119 83.976 128.335 82.4 128.767 81.136C129.215 79.872 129.943 78.92 130.951 78.28C131.975 77.64 133.359 77.32 135.103 77.32C136.847 77.32 138.223 77.64 139.231 78.28C140.255 78.92 140.983 79.872 141.415 81.136C141.863 82.4 142.087 83.976 142.087 85.864C142.087 87.768 141.863 89.344 141.415 90.592C140.983 91.84 140.255 92.768 139.231 93.376C138.223 93.968 136.847 94.264 135.103 94.264ZM135.103 91.48C136.111 91.48 136.871 91.28 137.383 90.88C137.911 90.464 138.263 89.84 138.439 89.008C138.615 88.16 138.703 87.112 138.703 85.864C138.703 84.616 138.607 83.568 138.415 82.72C138.239 81.856 137.895 81.208 137.383 80.776C136.871 80.328 136.111 80.104 135.103 80.104C134.111 80.104 133.351 80.328 132.823 80.776C132.311 81.208 131.959 81.856 131.767 82.72C131.575 83.568 131.479 84.616 131.479 85.864C131.479 87.096 131.567 88.128 131.743 88.96C131.935 89.792 132.287 90.424 132.799 90.856C133.327 91.272 134.095 91.48 135.103 91.48ZM149.672 94V80.416H145.256V77.608H157.256V80.416H152.984V94H149.672ZM160.987 94V77.608H167.155C168.515 77.608 169.643 77.8 170.539 78.184C171.435 78.552 172.107 79.152 172.555 79.984C173.019 80.816 173.251 81.928 173.251 83.32C173.251 84.712 173.019 85.848 172.555 86.728C172.107 87.592 171.435 88.232 170.539 88.648C169.643 89.048 168.515 89.248 167.155 89.248H164.299V94H160.987ZM164.299 86.536H167.059C168.067 86.536 168.787 86.272 169.219 85.744C169.651 85.2 169.867 84.4 169.867 83.344C169.867 82.256 169.651 81.48 169.219 81.016C168.787 80.552 168.067 80.32 167.059 80.32H164.299V86.536Z" fill="#00493C"/>
</svg>
