<svg width="41" height="29" viewBox="0 0 41 29" fill="none" xmlns="http://www.w3.org/2000/svg">
<path d="M39.2311 5.76949L17.2567 27.7439C16.943 28.058 16.5705 28.3073 16.1605 28.4774C15.7504 28.6474 15.3108 28.735 14.8669 28.735C14.4229 28.735 13.9834 28.6474 13.5733 28.4774C13.1632 28.3073 12.7907 28.058 12.4771 27.7439L1.48989 16.7567C0.856072 16.1229 0.5 15.2632 0.5 14.3669C0.5 13.4705 0.856072 12.6109 1.48989 11.9771C2.1237 11.3433 2.98334 10.9872 3.87969 10.9872C4.77604 10.9872 5.63567 11.3433 6.26949 11.9771L14.8669 20.5745L34.4599 0.989886C35.0937 0.356072 35.9533 0 36.8497 0C37.746 0 38.6057 0.356072 39.2395 0.989886C39.8733 1.6237 40.2294 2.48334 40.2294 3.37969C40.2294 4.27604 39.8733 5.13567 39.2395 5.76949H39.2311Z" fill="#FAFAFA"/>
</svg>
