<svg width="32" height="32" viewBox="0 0 32 32" fill="none" xmlns="http://www.w3.org/2000/svg">
<circle cx="16" cy="16" r="16" fill="#00493C"/>
<path d="M9.87534 18.311L9.0309 21.9555C9.00177 22.0887 9.00277 22.2268 9.03382 22.3596C9.06488 22.4923 9.1252 22.6165 9.21039 22.723C9.29558 22.8295 9.40349 22.9156 9.52622 22.975C9.64895 23.0345 9.78342 23.0658 9.91979 23.0666C9.98333 23.073 10.0474 23.073 10.1109 23.0666L13.7776 22.2222L20.8176 15.2088L16.8887 11.2888L9.87534 18.311Z" fill="white"/>
<path d="M23.0301 11.6977L20.4079 9.07543C20.2355 8.90391 20.0022 8.80762 19.759 8.80762C19.5158 8.80762 19.2825 8.90391 19.1101 9.07543L17.6523 10.5332L21.5768 14.4577L23.0346 12.9999C23.1199 12.9141 23.1874 12.8124 23.2334 12.7005C23.2794 12.5886 23.3028 12.4688 23.3024 12.3478C23.302 12.2269 23.2777 12.1072 23.231 11.9956C23.1843 11.8841 23.116 11.7828 23.0301 11.6977V11.6977Z" fill="white"/>
</svg>
