<svg width="17" height="17" viewBox="0 0 17 17" fill="none" xmlns="http://www.w3.org/2000/svg">
<path d="M7.33366 14C8.81281 13.9997 10.2493 13.5045 11.4145 12.5934L15.0778 16.2567L16.2562 15.0784L12.5928 11.415C13.5045 10.2497 14 8.81288 14.0003 7.33335C14.0003 3.65752 11.0095 0.666687 7.33366 0.666687C3.65783 0.666687 0.666992 3.65752 0.666992 7.33335C0.666992 11.0092 3.65783 14 7.33366 14ZM7.33366 2.33335C10.0912 2.33335 12.3337 4.57585 12.3337 7.33335C12.3337 10.0909 10.0912 12.3334 7.33366 12.3334C4.57616 12.3334 2.33366 10.0909 2.33366 7.33335C2.33366 4.57585 4.57616 2.33335 7.33366 2.33335Z" fill="#808093"/>
</svg>
