<svg width="17" height="17" viewBox="0 0 17 17" fill="none" xmlns="http://www.w3.org/2000/svg">
<path d="M7.33268 14C8.81183 13.9997 10.2484 13.5045 11.4135 12.5933L15.0768 16.2567L16.2552 15.0783L12.5919 11.415C13.5035 10.2497 13.999 8.81285 13.9993 7.33332C13.9993 3.65749 11.0085 0.666656 7.33268 0.666656C3.65685 0.666656 0.666016 3.65749 0.666016 7.33332C0.666016 11.0092 3.65685 14 7.33268 14ZM7.33268 2.33332C10.0902 2.33332 12.3327 4.57582 12.3327 7.33332C12.3327 10.0908 10.0902 12.3333 7.33268 12.3333C4.57518 12.3333 2.33268 10.0908 2.33268 7.33332C2.33268 4.57582 4.57518 2.33332 7.33268 2.33332Z" fill="#808093"/>
</svg>
