<svg width="12" height="8" viewBox="0 0 12 8" fill="none" xmlns="http://www.w3.org/2000/svg">
<path d="M5.247 7.14L0.450996 1.658C-0.115004 1.013 0.344996 3.67706e-07 1.204 3.67706e-07H10.796C10.9882 -0.000164459 11.1765 0.0550878 11.3381 0.159141C11.4998 0.263194 11.628 0.411637 11.7074 0.586693C11.7869 0.761749 11.8142 0.955998 11.7861 1.14618C11.758 1.33636 11.6757 1.5144 11.549 1.659L6.753 7.139C6.65913 7.24641 6.54338 7.3325 6.41351 7.39148C6.28363 7.45046 6.14264 7.48098 6 7.48098C5.85735 7.48098 5.71636 7.45046 5.58649 7.39148C5.45661 7.3325 5.34086 7.24641 5.247 7.139V7.14Z" fill="#5E5E5E"/>
</svg>
