<svg width="80" height="80" viewBox="0 0 80 80" fill="none" xmlns="http://www.w3.org/2000/svg">
<circle cx="40" cy="40" r="40" fill="white"/>
<g clip-path="url(#clip0_1180_2323)">
<path d="M37.1708 50.4706C36.7508 50.0506 36.07 50.0506 35.65 50.4706L32.8329 53.2878C32.4128 53.7072 32.4128 54.3886 32.8329 54.808C33.2499 55.2264 33.9315 55.2301 34.3537 54.808L37.1708 51.9908C37.5909 51.5707 37.5909 50.89 37.1708 50.4706ZM29.5291 42.8289C29.1098 42.4089 28.429 42.4089 28.009 42.8289L25.1918 45.6461C24.7718 46.0661 24.7718 46.7468 25.1918 47.1669C25.6112 47.5861 26.2909 47.588 26.712 47.1669L29.5291 44.3497C29.9492 43.9297 29.9492 43.2489 29.5291 42.8289ZM34.6238 45.376C34.2038 44.9559 33.523 44.9566 33.103 45.376L25.9633 52.5156C25.5433 52.9357 25.5433 53.6164 25.9633 54.0365C26.3832 54.4551 27.0626 54.4566 27.4841 54.0365L34.6238 46.8968C35.0439 46.4768 35.0439 45.796 34.6238 45.376ZM56.6128 24.7432L46.4234 55.9255C46.1354 56.8057 44.9393 56.9341 44.4718 56.1319L37.6198 44.3478C37.4034 43.9761 37.4296 43.5117 37.6856 43.1663L40.1459 39.8539L36.8335 42.3142C36.4881 42.5702 36.0237 42.5964 35.652 42.38L23.8679 35.5279C23.0685 35.0629 23.1915 33.8652 24.0742 33.5763L55.2566 23.387C56.0901 23.115 56.8859 23.9062 56.6128 24.7432Z" fill="#252525"/>
</g>
<defs>
<clipPath id="clip0_1180_2323">
<rect width="33.3333" height="33.3333" fill="white" transform="translate(23.3335 23.3333)"/>
</clipPath>
</defs>
</svg>
