<svg width="19" height="18" viewBox="0 0 19 18" fill="none" xmlns="http://www.w3.org/2000/svg">
<path d="M10.2001 1.19999C10.2001 1.11351 10.1813 1.02805 10.1452 0.94948C10.1091 0.870909 10.0564 0.80108 9.9907 0.744777C9.92505 0.688475 9.84801 0.64703 9.76485 0.623282C9.68169 0.599535 9.59438 0.594046 9.5089 0.607191L1.1089 1.89119C0.967277 1.91297 0.838126 1.98471 0.744804 2.09344C0.651482 2.20217 0.600152 2.34071 0.600098 2.48399V15.516C0.600152 15.6593 0.651482 15.7978 0.744804 15.9065C0.838126 16.0153 0.967277 16.087 1.1089 16.1088L9.5089 17.394C9.59438 17.4071 9.68169 17.4016 9.76485 17.3779C9.84801 17.3542 9.92505 17.3127 9.9907 17.2564C10.0564 17.2001 10.1091 17.1303 10.1452 17.0517C10.1813 16.9731 10.2001 16.8877 10.2001 16.8012V8.99999H16.4065L15.2101 10.0488C15.0975 10.1554 15.0305 10.3014 15.0232 10.4563C15.0159 10.6112 15.0689 10.7629 15.171 10.8796C15.2731 10.9963 15.4165 11.069 15.5709 11.0823C15.7254 11.0956 15.8791 11.0487 15.9997 10.9512L18.3949 8.85119C18.4591 8.79488 18.5106 8.72549 18.5459 8.64768C18.5812 8.56987 18.5994 8.48542 18.5994 8.39999C18.5994 8.31456 18.5812 8.23011 18.5459 8.1523C18.5106 8.07449 18.4591 8.0051 18.3949 7.94879L15.9997 5.84879C15.88 5.74408 15.7237 5.6912 15.565 5.70178C15.4064 5.71236 15.2584 5.78553 15.1537 5.90519C15.049 6.02486 14.9961 6.18122 15.0067 6.33987C15.0173 6.49853 15.0904 6.64648 15.2101 6.75119L16.4065 7.79999H10.2001V1.19999ZM7.2001 10.5C6.9614 10.5 6.73248 10.4052 6.5637 10.2364C6.39492 10.0676 6.3001 9.83869 6.3001 9.59999C6.3001 9.3613 6.39492 9.13238 6.5637 8.9636C6.73248 8.79481 6.9614 8.69999 7.2001 8.69999C7.43879 8.69999 7.66771 8.79481 7.83649 8.9636C8.00528 9.13238 8.1001 9.3613 8.1001 9.59999C8.1001 9.83869 8.00528 10.0676 7.83649 10.2364C7.66771 10.4052 7.43879 10.5 7.2001 10.5ZM12.0001 16.2H11.4001V10.2H12.6001V15.6C12.6001 15.7591 12.5369 15.9117 12.4244 16.0243C12.3118 16.1368 12.1592 16.2 12.0001 16.2ZM11.4001 6.59999V1.79999H12.0001C12.1592 1.79999 12.3118 1.86321 12.4244 1.97573C12.5369 2.08825 12.6001 2.24086 12.6001 2.39999V6.59999H11.4001Z" fill="#91A8A4"/>
</svg>
