<svg width="150" height="150" viewBox="0 0 150 150" fill="none" xmlns="http://www.w3.org/2000/svg">
<circle cx="75" cy="75" r="75" fill="#2B9A04" fill-opacity="0.25"/>
<circle cx="75" cy="75" r="62.5" fill="#2B9A04" fill-opacity="0.5"/>
<circle cx="75" cy="75" r="46.875" fill="#2B9A04"/>
<path d="M90.0884 67.3079L71.7764 85.6199C71.515 85.8817 71.2046 86.0894 70.8629 86.2311C70.5212 86.3729 70.1548 86.4458 69.7849 86.4458C69.415 86.4458 69.0487 86.3729 68.7069 86.2311C68.3652 86.0894 68.0548 85.8817 67.7934 85.6199L58.6374 76.4639C58.1092 75.9357 57.8125 75.2194 57.8125 74.4724C57.8125 73.7254 58.1092 73.0091 58.6374 72.4809C59.1656 71.9527 59.8819 71.656 60.6289 71.656C61.3759 71.656 62.0922 71.9527 62.6204 72.4809L69.7849 79.6454L86.1124 63.3249C86.6406 62.7967 87.3569 62.5 88.1039 62.5C88.8509 62.5 89.5672 62.7967 90.0954 63.3249C90.6236 63.8531 90.9203 64.5694 90.9203 65.3164C90.9203 66.0634 90.6236 66.7797 90.0954 67.3079H90.0884Z" fill="#FAFAFA"/>
</svg>
