<svg width="184" height="169" viewBox="0 0 184 169" fill="none" xmlns="http://www.w3.org/2000/svg">
<ellipse cx="92" cy="89" rx="92" ry="80" fill="white"/>
<circle cx="93" cy="75" r="75" fill="#2B9A04" fill-opacity="0.25"/>
<circle cx="93" cy="75" r="62.5" fill="#2B9A04" fill-opacity="0.5"/>
<circle cx="93" cy="75" r="46.875" fill="#2B9A04"/>
<path d="M108.088 67.3079L89.7764 85.6199C89.515 85.8817 89.2046 86.0894 88.8629 86.2311C88.5212 86.3729 88.1548 86.4458 87.7849 86.4458C87.415 86.4458 87.0487 86.3729 86.7069 86.2311C86.3652 86.0894 86.0548 85.8817 85.7934 85.6199L76.6374 76.4639C76.1092 75.9357 75.8125 75.2194 75.8125 74.4724C75.8125 73.7254 76.1092 73.0091 76.6374 72.4809C77.1656 71.9527 77.8819 71.656 78.6289 71.656C79.3759 71.656 80.0922 71.9527 80.6204 72.4809L87.7849 79.6454L104.112 63.3249C104.641 62.7967 105.357 62.5 106.104 62.5C106.851 62.5 107.567 62.7967 108.095 63.3249C108.624 63.8531 108.92 64.5694 108.92 65.3164C108.92 66.0634 108.624 66.7797 108.095 67.3079H108.088Z" fill="#FAFAFA"/>
</svg>
