<svg width="24" height="24" viewBox="0 0 24 24" fill="none" xmlns="http://www.w3.org/2000/svg">
<path d="M8.03147 7.6785L11.3075 1.188C11.3704 1.05743 11.4687 0.94715 11.5912 0.869714C11.7137 0.792279 11.8555 0.7508 12.0005 0.75C12.275 0.75 12.5495 0.8955 12.698 1.188L15.974 7.6785L23.321 8.7225C23.5041 8.75129 23.6717 8.84237 23.7955 8.98036C23.9193 9.11836 23.9917 9.29483 24.0005 9.48C24.0109 9.60328 23.9934 9.72733 23.9493 9.84291C23.9051 9.95848 23.8355 10.0626 23.7455 10.1475L18.461 15.1815L19.706 22.2765C19.823 22.941 19.166 23.4615 18.587 23.1645L12.0005 19.7805L5.41697 23.1645C5.34811 23.2003 5.27429 23.2255 5.19797 23.2395C4.68497 23.3295 4.19597 22.8585 4.29797 22.2765L5.54297 15.1815L0.25997 10.1475C0.177838 10.0698 0.112555 9.97604 0.0681724 9.87205C0.0237901 9.76806 0.00125623 9.65606 0.00196955 9.543C0.00204756 9.38315 0.0461616 9.22642 0.12947 9.09C0.188568 8.9911 0.269118 8.90674 0.365176 8.84313C0.461235 8.77953 0.57035 8.7383 0.68447 8.7225L8.03147 7.6785ZM12.0005 18.0405C12.1215 18.04 12.241 18.0688 12.3485 18.1245L17.8775 20.9655L16.8365 15.03C16.8119 14.8935 16.8212 14.753 16.8636 14.621C16.9059 14.4889 16.9801 14.3692 17.0795 14.2725L21.44 10.1175L15.362 9.2535C15.2361 9.23449 15.1167 9.18526 15.0141 9.11003C14.9114 9.03479 14.8285 8.93579 14.7725 8.8215L12.002 3.3345L12.0005 3.339V18.039V18.0405Z" fill="#0FA958"/>
</svg>
