<svg width="150" height="32" viewBox="0 0 150 32" fill="none" xmlns="http://www.w3.org/2000/svg">
<g clip-path="url(#clip0_676_11559)">
<path d="M16.8202 0.222759C16.8911 0.354406 18.4202 3.03795 20.2228 6.18732C22.0152 9.34681 23.4937 11.9696 23.4937 12.0202C23.4937 12.081 21.9646 14.7949 20.1013 18.0658C18.238 21.3367 16.7089 24.0304 16.7089 24.0607C16.7089 24.081 18.9063 24.0911 21.6 24.081L26.481 24.0506L29.8937 18.0759C31.7772 14.7848 33.3063 12.0506 33.2861 11.9898C33.2759 11.9291 31.7367 9.20504 29.8734 5.94428L26.481 -2.47955e-05H21.5899H16.6987L16.8202 0.222759Z" fill="#00493C"/>
<path d="M42.9165 6.93666C41.2558 7.35185 40.1722 8.51641 39.7469 10.3392C39.3317 12.1721 39.352 15.9088 39.7874 17.6405C40.5773 20.7392 42.8456 21.681 47.6355 20.9012L48.7292 20.7189L48.6887 19.7772C48.6684 19.2607 48.6279 18.8151 48.5975 18.7848C48.5671 18.7544 48.0406 18.805 47.433 18.886C46.1671 19.0683 44.1621 19.0987 43.6659 18.9468C42.1975 18.5012 41.7925 17.4177 41.7925 13.9746C41.7925 11.6658 41.9241 10.7341 42.3798 9.97464C42.714 9.39742 43.0684 9.15438 43.8583 8.95185C44.5671 8.76957 45.7925 8.79995 47.595 9.05312C48.1216 9.124 48.5773 9.17464 48.6077 9.14426C48.6279 9.124 48.6684 8.67844 48.6887 8.16198L48.7292 7.23033L47.7368 7.03793C46.4001 6.79489 43.7165 6.73413 42.9165 6.93666Z" fill="#00493C"/>
<path d="M118.684 13.9646V20.962H119.798H120.911L120.932 18.7544L120.962 16.557L123.139 16.4962C125.57 16.4355 125.965 16.3544 126.846 15.7468C127.494 15.3013 128.041 14.5317 128.324 13.6608C128.608 12.8 128.638 10.6633 128.385 9.8228C127.99 8.53672 127.23 7.71647 126.005 7.26077C125.448 7.04811 125.225 7.03799 122.056 7.00761L118.684 6.97723V13.9646ZM124.891 9.12406C125.823 9.37723 126.279 10.1975 126.279 11.6456C126.279 13.0734 125.752 14.1063 124.881 14.3595C124.638 14.4304 123.767 14.481 122.694 14.481H120.911V11.7468V9.01267H122.714C123.696 9.01267 124.679 9.0633 124.891 9.12406Z" fill="#00493C"/>
<path d="M111.19 9.16454V10.6228L110.512 10.6531L109.823 10.6835L109.793 11.6658L109.762 12.6582H110.471H111.18L111.21 15.919C111.241 19.1088 111.251 19.2 111.484 19.7266C112.061 21.0025 113.165 21.3569 115.565 21.0531L116.456 20.9316V20.6076C116.456 20.4253 116.426 20 116.395 19.6557L116.324 19.038L115.15 19.0987C114.096 19.1595 113.955 19.1493 113.742 18.9772C113.408 18.7038 113.317 17.9038 113.317 15.0582V12.6582H114.836H116.355V11.6455V10.6329H114.836H113.317V9.16454V7.69618H112.253H111.19V9.16454Z" fill="#00493C"/>
<path d="M3.50402 13.8937C1.41794 17.5392 0.101483 19.9494 0.131862 20.0608C0.162242 20.162 1.69136 22.8861 3.54452 26.1165L6.89642 32H11.7673C16.1926 32 16.6281 31.9899 16.5673 31.838C16.5369 31.7468 14.9977 29.043 13.1648 25.8228L9.82301 19.9595L13.2154 14.0354C15.0787 10.7747 16.6078 8.06076 16.6078 8C16.6078 7.92911 14.9572 7.89873 11.7572 7.89873H6.91668L3.50402 13.8937Z" fill="#00493C"/>
<path d="M54.1267 10.5316C52.4255 10.7747 51.4229 11.5949 50.9166 13.1645C50.7647 13.6607 50.6938 14.1772 50.6634 15.2911C50.5217 19.3316 51.6153 20.9316 54.6229 21.1342C57.347 21.3063 58.8457 20.3443 59.4128 18.0557C59.6457 17.0937 59.6457 14.4911 59.4128 13.5392C59.0179 11.9696 58.1875 11.0481 56.8204 10.6835C56.1318 10.5012 54.8559 10.4304 54.1267 10.5316ZM56.1115 12.5671C56.5571 12.719 56.79 12.9316 57.0229 13.3975C57.4584 14.238 57.4584 17.2962 57.0229 18.2785C56.7394 18.9164 56.2533 19.1291 55.109 19.1392C53.8634 19.1392 53.347 18.8456 53.0533 17.9747C52.871 17.438 52.8609 14.2987 53.0331 13.7215C53.2153 13.1544 53.5495 12.7797 54.0255 12.6076C54.5217 12.4354 55.6457 12.4152 56.1115 12.5671Z" fill="#00493C"/>
<path d="M66.1775 10.5722C65.8434 10.6532 65.3269 10.8051 65.0434 10.9266L64.5067 11.1393V10.8861V10.6228L63.4231 10.6532L62.3294 10.6836L62.2991 15.8177L62.2788 20.962H63.3927H64.5067L64.5269 16.9924L64.5573 13.0127L65.2155 12.7798C66.0459 12.476 67.2915 12.4355 67.6864 12.6886C68.294 13.0836 68.3041 13.1747 68.3345 17.2355L68.3649 20.962H69.4788H70.6029L70.5624 17.1342C70.5421 15.038 70.5016 13.2456 70.4712 13.1646C70.4105 12.9317 71.6864 12.5367 72.5573 12.5266C73.4383 12.5165 73.813 12.6785 74.0763 13.2152C74.2687 13.5899 74.2788 13.8532 74.3092 17.2861L74.3396 20.962H75.4535H76.5573V17.5798C76.5573 13.0532 76.3649 12.0101 75.4029 11.1595C74.4206 10.2987 72.2636 10.2785 70.2484 11.0987L69.651 11.3317L69.2256 11.0481C68.4965 10.5418 67.2105 10.3393 66.1775 10.5722Z" fill="#00493C"/>
<path d="M83.1697 10.5418C82.714 10.6127 82.2482 10.7747 81.4988 11.0886C81.3469 11.1494 81.3165 11.1089 81.3165 10.8962V10.6329H80.2532H79.1899V17.9241V25.2152H80.2532H81.3165V23.0785C81.3165 21.1747 81.3368 20.9519 81.4785 21.0026C81.8431 21.1443 83.6254 21.1848 84.3241 21.0734C86.7646 20.6582 87.7064 19.1798 87.7064 15.7469C87.7064 12.3848 86.795 10.8557 84.5874 10.5317C83.8178 10.4203 83.8887 10.4203 83.1697 10.5418ZM84.3545 12.6785C84.9114 12.9722 85.114 13.2557 85.3165 14.0253C85.4988 14.7342 85.519 16.557 85.357 17.3367C85.0836 18.6329 84.5975 19.0481 83.2811 19.119C82.8152 19.1393 82.1874 19.1291 81.8836 19.0988L81.3165 19.0279V16.0507V13.0734L81.9039 12.8608C83.0785 12.4152 83.7368 12.3646 84.3545 12.6785Z" fill="#00493C"/>
<path d="M93.1849 10.5316C92.3444 10.6025 91.3925 10.7342 90.6128 10.8962C90.3596 10.9468 90.3292 10.9975 90.3292 11.3823C90.3292 11.6253 90.3596 12.0202 90.39 12.2633L90.4507 12.7089L91.7368 12.5873C92.4355 12.5266 93.4482 12.4658 93.9748 12.4658C95.1393 12.4557 95.5241 12.6278 95.6862 13.2354C95.8381 13.7721 95.8279 14.481 95.676 14.481C95.109 14.481 92.3039 14.8253 91.8988 14.9367C91.1191 15.1595 90.5115 15.6152 90.1672 16.2228C89.8938 16.7291 89.8735 16.8304 89.8735 17.924C89.8735 18.8962 89.914 19.1696 90.0862 19.5443C90.8356 21.1646 92.6786 21.5595 95.4533 20.7089L96.233 20.4658L96.6482 20.7089C97.114 20.9721 97.9241 21.1646 98.5824 21.1646H99.038V20.2633V19.362L98.714 19.3013C98.0456 19.1696 98.0862 19.3418 98.0254 15.9291C97.9646 13.0228 97.9545 12.7696 97.7419 12.243C97.3469 11.2608 96.5368 10.6937 95.2609 10.5316C94.4609 10.4304 94.5216 10.4304 93.1849 10.5316ZM95.7773 17.4886L95.7469 18.7848L95.0887 18.9671C94.7241 19.0683 94.0659 19.1696 93.6102 19.2101C92.8102 19.2709 92.79 19.2608 92.4558 18.9671C92.1419 18.6835 92.1115 18.6025 92.0811 18.0152C92.0102 16.8101 92.3343 16.5367 94.0862 16.3646C94.7748 16.2835 95.4431 16.2228 95.5748 16.2127C95.8077 16.2025 95.8077 16.2025 95.7773 17.4886Z" fill="#00493C"/>
<path d="M104.162 10.5418C102.836 10.724 101.884 11.3316 101.367 12.3646C100.891 13.2861 100.679 15.2405 100.851 17.0025C101.094 19.3721 101.722 20.3747 103.291 20.9215C103.97 21.1544 105.904 21.1747 107.271 20.9722L108.162 20.8405L108.132 19.9089L108.101 18.9873L107.241 19.038C104.506 19.2 103.838 19.0582 103.413 18.2177C102.967 17.3266 102.917 14.5215 103.322 13.5595C103.706 12.638 104.567 12.4051 106.957 12.5873L108.03 12.6683L108.101 11.919C108.213 10.7646 108.233 10.8051 107.241 10.6734C105.803 10.481 104.891 10.4405 104.162 10.5418Z" fill="#00493C"/>
<path d="M133.479 10.5418C132.628 10.6228 130.714 10.9063 130.684 10.9671C130.613 11.0684 130.805 12.7089 130.886 12.6886C131.474 12.5975 134.309 12.4355 134.836 12.476C135.453 12.5165 135.545 12.5469 135.808 12.8405C136.071 13.1342 136.101 13.2456 136.101 13.8228C136.101 14.3089 136.061 14.481 135.96 14.481C135.312 14.481 132.679 14.8253 132.152 14.9874C130.795 15.3823 130.198 16.2734 130.188 17.8734C130.177 19.8987 131.119 21.0025 132.962 21.1443C133.691 21.1949 135.018 20.9823 135.95 20.6582L136.537 20.4557L137.155 20.7595C137.6 20.9823 137.985 21.0836 138.542 21.1241L139.312 21.1949L139.372 20.6481C139.413 20.3443 139.443 19.9393 139.443 19.7367C139.443 19.3924 139.413 19.362 139.109 19.3013C138.35 19.1595 138.39 19.3114 138.329 15.7772L138.279 12.6076L137.985 12.0203C137.367 10.7544 135.99 10.2987 133.479 10.5418ZM136.101 17.5089V18.8152L135.423 18.9874C134.532 19.2101 133.388 19.2911 133.043 19.1494C132.669 19.0076 132.415 18.4912 132.415 17.8532C132.415 17.2253 132.598 16.8506 133.003 16.638C133.246 16.5165 134.734 16.2937 135.929 16.2127C136.081 16.2025 136.101 16.3241 136.101 17.5089Z" fill="#00493C"/>
<path d="M140.405 10.9063C140.436 11.0684 141.064 13.3772 141.803 16.0506L143.15 20.9114L143.828 20.9418C144.203 20.962 144.507 20.9924 144.507 21.0329C144.507 21.0937 143.413 24.8507 143.322 25.0633C143.281 25.195 143.453 25.2152 144.416 25.2152H145.57L147.575 18.0456C148.669 14.1063 149.57 10.8253 149.57 10.7544C149.57 10.6532 149.317 10.6329 148.486 10.6532L147.393 10.6836L146.259 14.7747C145.641 17.0228 145.084 18.9063 145.033 18.957C144.983 19.0076 144.912 19.0177 144.881 18.9671C144.831 18.8861 142.583 10.7848 142.583 10.6836C142.583 10.6532 142.076 10.6329 141.459 10.6329H140.334L140.405 10.9063Z" fill="#00493C"/>
</g>
<defs>
<clipPath id="clip0_676_11559">
<rect width="149.671" height="32" fill="white"/>
</clipPath>
</defs>
</svg>
