<svg width="180" height="180" viewBox="0 0 180 180" fill="none" xmlns="http://www.w3.org/2000/svg">
<g filter="url(#filter0_d_401_1155)">
<circle cx="90" cy="74" r="50" fill="#EAC435"/>
</g>
<path d="M78.0005 50C77.0536 50 76.2861 50.7675 76.2861 51.7143V55.1429H79.7147V51.7143C79.7147 50.7675 78.9472 50 78.0005 50Z" fill="#F5F5FC"/>
<path d="M102 50C101.054 50 100.286 50.7675 100.286 51.7143V55.1429H103.715V51.7143C103.715 50.7675 102.947 50 102 50Z" fill="#F5F5FC"/>
<path d="M108.857 55.1428H103.714V62C103.714 62.9468 102.947 63.7143 102 63.7143C101.053 63.7143 100.286 62.9468 100.286 62V55.1428H79.7142V62C79.7142 62.9468 78.9467 63.7143 77.9999 63.7143C77.0531 63.7143 76.2856 62.9468 76.2856 62V55.1428H71.1429C68.3025 55.1428 66 57.4454 66 60.2857V92.8571C66 95.6974 68.3025 98 71.1429 98H108.857C111.697 98 114 95.6974 114 92.8571V60.2857C114 57.4454 111.697 55.1428 108.857 55.1428ZM110.571 92.8571C110.571 93.8039 109.804 94.5714 108.857 94.5714H71.1429C70.196 94.5714 69.4285 93.8039 69.4285 92.8571V70.5714H110.571V92.8571Z" fill="#F5F5FC"/>
<path d="M79.7141 74H76.2856C75.3388 74 74.5713 74.7675 74.5713 75.7143C74.5713 76.6611 75.3388 77.4286 76.2856 77.4286H79.7141C80.6609 77.4286 81.4285 76.6611 81.4285 75.7143C81.4285 74.7675 80.6609 74 79.7141 74Z" fill="#F5F5FC"/>
<path d="M91.7141 74H88.2856C87.3388 74 86.5713 74.7675 86.5713 75.7143C86.5713 76.6611 87.3388 77.4286 88.2856 77.4286H91.7141C92.661 77.4286 93.4285 76.6611 93.4285 75.7143C93.4285 74.7675 92.661 74 91.7141 74Z" fill="#F5F5FC"/>
<path d="M103.714 74H100.286C99.3388 74 98.5713 74.7675 98.5713 75.7143C98.5713 76.6611 99.3388 77.4286 100.286 77.4286H103.714C104.661 77.4286 105.428 76.6611 105.428 75.7143C105.428 74.7675 104.661 74 103.714 74Z" fill="#F5F5FC"/>
<path d="M79.7141 80.8572H76.2856C75.3388 80.8572 74.5713 81.6247 74.5713 82.5715C74.5713 83.5183 75.3388 84.2858 76.2856 84.2858H79.7141C80.6609 84.2858 81.4285 83.5183 81.4285 82.5715C81.4285 81.6247 80.6609 80.8572 79.7141 80.8572Z" fill="#F5F5FC"/>
<path d="M91.7141 80.8572H88.2856C87.3388 80.8572 86.5713 81.6247 86.5713 82.5715C86.5713 83.5183 87.3388 84.2858 88.2856 84.2858H91.7141C92.661 84.2858 93.4285 83.5183 93.4285 82.5715C93.4285 81.6247 92.661 80.8572 91.7141 80.8572Z" fill="#F5F5FC"/>
<path d="M103.714 80.8572H100.286C99.3388 80.8572 98.5713 81.6247 98.5713 82.5715C98.5713 83.5183 99.3388 84.2858 100.286 84.2858H103.714C104.661 84.2858 105.428 83.5183 105.428 82.5715C105.428 81.6247 104.661 80.8572 103.714 80.8572Z" fill="#F5F5FC"/>
<path d="M79.7141 87.7141H76.2856C75.3388 87.7141 74.5713 88.4816 74.5713 89.4284C74.5713 90.3752 75.3388 91.1426 76.2856 91.1426H79.7141C80.6609 91.1426 81.4285 90.3751 81.4285 89.4283C81.4285 88.4815 80.6609 87.7141 79.7141 87.7141Z" fill="#F5F5FC"/>
<path d="M91.7141 87.7141H88.2856C87.3388 87.7141 86.5713 88.4816 86.5713 89.4284C86.5713 90.3752 87.3388 91.1427 88.2856 91.1427H91.7141C92.661 91.1427 93.4285 90.3752 93.4285 89.4284C93.4285 88.4816 92.661 87.7141 91.7141 87.7141Z" fill="#F5F5FC"/>
<path d="M103.714 87.7141H100.286C99.3388 87.7141 98.5713 88.4816 98.5713 89.4284C98.5713 90.3752 99.3388 91.1427 100.286 91.1427H103.714C104.661 91.1427 105.428 90.3752 105.428 89.4284C105.428 88.4816 104.661 87.7141 103.714 87.7141Z" fill="#F5F5FC"/>
<defs>
<filter id="filter0_d_401_1155" x="0" y="0" width="180" height="180" filterUnits="userSpaceOnUse" color-interpolation-filters="sRGB">
<feFlood flood-opacity="0" result="BackgroundImageFix"/>
<feColorMatrix in="SourceAlpha" type="matrix" values="0 0 0 0 0 0 0 0 0 0 0 0 0 0 0 0 0 0 127 0" result="hardAlpha"/>
<feOffset dy="16"/>
<feGaussianBlur stdDeviation="20"/>
<feColorMatrix type="matrix" values="0 0 0 0 0.146118 0 0 0 0 0.172389 0 0 0 0 0.441667 0 0 0 0.1 0"/>
<feBlend mode="normal" in2="BackgroundImageFix" result="effect1_dropShadow_401_1155"/>
<feBlend mode="normal" in="SourceGraphic" in2="effect1_dropShadow_401_1155" result="shape"/>
</filter>
</defs>
</svg>
